# xmcd
#
# Track frame offsets:
#	150
#	19592
#	38154
#	56060
#	74702
#	91475
#	107798
#	123971
#	158356
#	176918
#	197441
#	214439
#	232712
#	245960
#	264383
#	283331
#	304604
#	324152
#	337325
#
# Disc length: 4724 seconds
#
# Revision: 1
# Processed by: cddbd v1.5.2PL0 Copyright (c) Steve Scherf et al.
# Submitted via: audiograbber 1.83.01
#
DISCID=19127213
DTITLE=varios - mis canciones
DYEAR=1900
DGENRE=
TTITLE0=elefante - Pista  1
TTITLE1=elefante - Pista  2
TTITLE2=elefante - Pista  3
TTITLE3=kalimba - Pista  4
TTITLE4=RBD - Pista  5
TTITLE5=reik - Pista  6
TTITLE6=ricardo arjona - Pista  7
TTITLE7=reily - Pista  8
TTITLE8=reily - Pista  9
TTITLE9=bumburi - Pista 10
TTITLE10=bumburi - Pista 11
TTITLE11=bumburi - Pista 12
TTITLE12=panda  - Pista 13
TTITLE13=axel fernandez - Pista 14
TTITLE14=chayanne - Pista 15
TTITLE15=chayanne - Pista 16
TTITLE16=chayanne - Pista 17
TTITLE17=lupullo - Pista 18
TTITLE18=bumburi - Pista 19
EXTD=
EXTT0=
EXTT1=
EXTT2=
EXTT3=
EXTT4=
EXTT5=
EXTT6=
EXTT7=
EXTT8=
EXTT9=
EXTT10=
EXTT11=
EXTT12=
EXTT13=
EXTT14=
EXTT15=
EXTT16=
EXTT17=
EXTT18=
PLAYORDER=
